# xmcd CD database file
#
# Track frame offsets:
#	150
#	20325
#	36350
#
# Disc length: 742 seconds
#
# Revision: 1
# Processed by: cddbd v1.5.2PL0 Copyright (c) Steve Scherf et al.
# Submitted via: CDex 2.23
#
DISCID=1c02e403
DTITLE=Rod Stewart - So Far Away
DYEAR=1995
DGENRE=Pop
TTITLE0=So Far Away
TTITLE1=Soothe Me
TTITLE2=So Far Away (Guitar Remix by Bob Clearmountain)
EXTD=YEAR: 1995
EXTT0=
EXTT1=
EXTT2=
PLAYORDER=
